Coordinates
version=1
nRows=15
nColumns=46
inDegrees=yes

Units are S.I. units (second, meters, Newtons, ...)
Angles are in degrees.

endheader
time	pelvis_tilt	pelvis_list	pelvis_rotation	pelvis_tx	pelvis_ty	pelvis_tz	bb_angle	bb_tx	bb_ty	bb_tz	hip_flexion_r	hip_adduction_r	hip_rotation_r	knee_angle_r	knee_angle_r_beta	ankle_angle_r	subtalar_angle_r	mtp_angle_r	crank_angle_r	hip_flexion_l	hip_adduction_l	hip_rotation_l	knee_angle_l	knee_angle_l_beta	ankle_angle_l	subtalar_angle_l	mtp_angle_l	crank_angle_l	lumbar_extension	lumbar_bending	lumbar_rotation	arm_flex_r	arm_add_r	arm_rot_r	elbow_flex_r	pro_sup_r	wrist_flex_r	wrist_dev_r	arm_flex_l	arm_add_l	arm_rot_l	elbow_flex_l	pro_sup_l	wrist_flex_l	wrist_dev_l
      0.00500000	    -25.37429957	      0.54358489	     -4.82192071	      0.12938693	      1.14143227	     -0.23160256	      0.00000000	      0.50000000	      0.00000000	      0.25000000	     91.89856461	     -1.09846705	      1.40632901	     88.26972586	      1.54059735	     29.47812940	     -7.23728412	      0.00000000	      0.00000000	     64.57141407	    -13.03436085	     -7.91358688	     67.34586864	      1.17540715	    -11.97236068	     -2.79154975	      0.00000000	      0.00000000	    -51.74991757	      3.55599483	     12.52768755	     89.66737618	    -39.09479664	     42.12479510	     78.12034271	     32.49362049	      0.00000000	      0.00000000	     87.31679898	    -12.51333035	     40.10353432	     51.58817407	     34.66739591	      0.00000000	      0.00000000
      0.01000000	    -25.45124344	      0.59156384	     -4.88563565	      0.12950641	      1.14159192	     -0.23140427	      0.00000000	      0.50000000	      0.00000000	      0.25000000	     91.74288856	     -0.99462254	      1.44394853	     87.84645714	      1.53320991	     29.48853098	     -7.29961111	      0.00000000	      0.00000000	     64.72214729	    -13.08443579	     -7.91497680	     67.58839284	      1.17963999	    -11.99563778	     -2.83888221	      0.00000000	      0.00000000	    -51.72533990	      3.55733129	     12.33513555	     89.67895637	    -38.60968021	     42.18814551	     77.69697350	     33.18982104	      0.00000000	      0.00000000	     86.76656186	    -12.72343078	     38.68121251	     52.38061421	     35.34811231	      0.00000000	      0.00000000
      0.01500000	    -25.47786016	      0.62879721	     -4.83122599	      0.12943764	      1.14177218	     -0.23151499	      0.00000000	      0.50000000	      0.00000000	      0.25000000	     91.53696439	     -1.05200478	      1.39285610	     87.38741897	      1.52519819	     29.50041545	     -7.62044142	      0.00000000	      0.00000000	     64.84218595	    -12.98295109	     -7.80411914	     67.82300781	      1.18373479	    -11.87349144	     -2.75333784	      0.00000000	      0.00000000	    -51.74957003	      3.53854094	     12.49286570	     89.67247670	    -39.06474254	     41.95462626	     77.95697182	     33.59460766	      0.00000000	      0.00000000	     87.38891271	    -12.68550514	     40.19083880	     51.44754382	     36.30613950	      0.00000000	      0.00000000
      0.02000000	    -25.46866499	      0.59555256	     -4.74928218	      0.12941952	      1.14185036	     -0.23161795	      0.00000000	      0.50000000	      0.00000000	      0.25000000	     91.33355327	     -1.10890061	      1.37238743	     87.04282960	      1.51918397	     29.50329954	     -7.51624756	      0.00000000	      0.00000000	     64.92215085	    -12.64482921	     -7.37419342	     67.99979455	      1.18682031	    -11.75064238	     -2.81859514	      0.00000000	      0.00000000	    -51.85136946	      3.73702164	     12.44327494	     89.68177996	    -38.88701765	     41.82320445	     77.92231278	     34.11635484	      0.00000000	      0.00000000	     87.05276560	    -12.83275459	     39.30188548	     52.01503892	     36.82230751	      0.00000000	      0.00000000
      0.02500000	    -25.53481524	      0.77855892	     -4.73571661	      0.12924190	      1.14217939	     -0.23207747	      0.00000000	      0.50000000	      0.00000000	      0.25000000	     91.20090597	     -1.06820441	      1.62567372	     86.62382727	      1.51187100	     29.50219775	     -7.61615616	      0.00000000	      0.00000000	     65.07278586	    -12.65902078	     -7.57476973	     68.31565012	      1.19233303	    -11.57604310	     -3.05377874	      0.00000000	      0.00000000	    -51.80895937	      3.59393994	     12.25501838	     89.67810605	    -38.89198536	     41.90308744	     78.02770208	     34.58287289	      0.00000000	      0.00000000	     86.96677488	    -12.95895156	     38.86147723	     52.28705479	     37.26048566	      0.00000000	      0.00000000
      0.03000000	    -25.58809644	      0.89729994	     -4.66297546	      0.12910119	      1.14227081	     -0.23216706	      0.00000000	      0.50000000	      0.00000000	      0.25000000	     91.05219188	     -1.08799113	      1.80255498	     86.22804987	      1.50496338	     29.49449097	     -7.68357401	      0.00000000	      0.00000000	     65.17061632	    -12.42527354	     -7.46373809	     68.49653226	      1.19549001	    -11.34101896	     -3.15938709	      0.00000000	      0.00000000	    -51.77748814	      3.52023882	     12.38629814	     89.67365069	    -39.44459301	     41.80964620	     78.35620590	     34.29188878	      0.00000000	      0.00000000	     87.54305247	    -12.90577333	     40.36915271	     51.43423324	     37.65413804	      0.00000000	      0.00000000
      0.03500000	    -25.71957653	      0.89656484	     -4.69860280	      0.12889446	      1.14204778	     -0.23205702	      0.00000000	      0.50000000	      0.00000000	      0.25000000	     90.99445882	     -0.97846018	      1.81752609	     85.85242417	      1.49840747	     29.49106492	     -7.75489670	      0.00000000	      0.00000000	     65.45362677	    -12.48847798	     -7.39568503	     68.83333695	      1.20136836	    -11.31142477	     -3.17205787	      0.00000000	      0.00000000	    -51.78687431	      3.51401944	     12.35432289	     89.65223284	    -39.01329542	     40.94719344	     78.40305408	     34.82351838	      0.00000000	      0.00000000	     87.28386348	    -12.98943307	     38.89629967	     52.43022857	     38.05590173	      0.00000000	      0.00000000
      0.04000000	    -25.67414307	      1.01839368	     -4.59480071	      0.12881317	      1.14233602	     -0.23234580	      0.00000000	      0.50000000	      0.00000000	      0.25000000	     90.72822712	     -1.05614684	      1.96511592	     85.37625212	      1.49009670	     29.50449120	     -7.94425498	      0.00000000	      0.00000000	     65.46246088	    -12.33005739	     -7.42690269	     69.06310516	      1.20537858	    -11.10986885	     -3.05442995	      0.00000000	      0.00000000	    -51.74346877	      3.53054158	     12.28709274	     89.67703289	    -39.44835687	     41.69049732	     78.41045370	     34.62566898	      0.00000000	      0.00000000	     87.60390832	    -13.05720027	     40.27914866	     51.44231726	     38.39087717	      0.00000000	      0.00000000
      0.04500000	    -25.70805723	      1.00615129	     -4.64863521	      0.12870236	      1.14252919	     -0.23224714	      0.00000000	      0.50000000	      0.00000000	      0.25000000	     90.50312601	     -0.93917262	      1.95227981	     84.90473485	      1.48186717	     29.51190921	     -7.99967761	      0.00000000	      0.00000000	     65.58452077	    -12.41746225	     -7.40121858	     69.33519038	      1.21012736	    -10.99277786	     -3.07336246	      0.00000000	      0.00000000	    -51.83789199	      3.56801523	     12.24876860	     89.67665524	    -39.11474310	     41.26502711	     78.37510123	     35.25205540	      0.00000000	      0.00000000	     87.19892621	    -13.23001053	     38.87569424	     52.32331605	     38.82763166	      0.00000000	      0.00000000
      0.05000000	    -25.76040108	      1.13441085	     -4.52373139	      0.12849249	      1.14247065	     -0.23245442	      0.00000000	      0.50000000	      0.00000000	      0.25000000	     90.38627154	     -1.03088284	      2.09787197	     84.53093528	      1.47534314	     29.50341714	     -8.22495989	      0.00000000	      0.00000000	     65.72249010	    -12.21357949	     -7.37500210	     69.57332092	      1.21428352	    -10.79867333	     -3.04426103	      0.00000000	      0.00000000	    -51.72927905	      3.53897172	     12.22727670	     89.67765696	    -39.52634656	     41.52281996	     78.49281704	     34.92050834	      0.00000000	      0.00000000	     87.77020582	    -13.24389280	     40.44468296	     51.33334361	     39.11487270	      0.00000000	      0.00000000
      0.05500000	    -25.78691480	      1.13057783	     -4.52356352	      0.12830432	      1.14260248	     -0.23246256	      0.00000000	      0.50000000	      0.00000000	      0.25000000	     90.17158029	     -0.98635270	      2.07556270	     84.06190098	      1.46715695	     29.50402151	     -8.24613810	      0.00000000	      0.00000000	     65.84729173	    -12.20681282	     -7.30959485	     69.83329205	      1.21882087	    -10.69427733	     -3.14596206	      0.00000000	      0.00000000	    -51.80078145	      3.59603393	     12.09205904	     89.67884611	    -39.17003849	     41.21783478	     78.40388042	     35.49446707	      0.00000000	      0.00000000	     87.44045185	    -13.37123479	     39.16889093	     52.14540384	     39.48774035	      0.00000000	      0.00000000
      0.06000000	    -25.84326770	      1.24409810	     -4.41295767	      0.12805984	      1.14254347	     -0.23269512	      0.00000000	      0.50000000	      0.00000000	      0.25000000	     90.04422499	     -1.06920232	      2.19491864	     83.65542288	      1.46006257	     29.49953864	     -8.39430314	      0.00000000	      0.00000000	     65.99820895	    -12.03492047	     -7.29510464	     70.09712281	      1.22342559	    -10.45795741	     -3.11320414	      0.00000000	      0.00000000	    -51.66383303	      3.59866093	     12.17799915	     89.68039873	    -39.55003103	     41.41651688	     78.54929178	     35.16262249	      0.00000000	      0.00000000	     87.96549061	    -13.10385568	     40.56467483	     50.91533316	     39.67438666	      0.00000000	      0.00000000
      0.06500000	    -25.89758727	      1.33331450	     -4.35095983	      0.12784611	      1.14251306	     -0.23286981	      0.00000000	      0.50000000	      0.00000000	      0.25000000	     89.89035149	     -1.13246694	      2.24688887	     83.20834775	      1.45225963	     29.49544946	     -8.52823153	      0.00000000	      0.00000000	     66.16404576	    -11.98198664	     -7.36425434	     70.40095767	      1.22872851	    -10.28480991	     -3.03899128	      0.00000000	      0.00000000	    -51.60205673	      3.57304773	     12.07086501	     89.68576683	    -39.62608283	     41.40858002	     78.63631255	     35.24298415	      0.00000000	      0.00000000	     87.91711331	    -13.12029369	     40.40758087	     50.91836320	     39.95113583	      0.00000000	      0.00000000
      0.07000000	    -25.92505392	      1.37512662	     -4.35206202	      0.12757273	      1.14257991	     -0.23277115	      0.00000000	      0.50000000	      0.00000000	      0.25000000	     89.69412544	     -1.03029319	      2.35410794	     82.76541481	      1.44452900	     29.48443451	     -8.60396210	      0.00000000	      0.00000000	     66.29086968	    -11.97095804	     -7.33445268	     70.68106859	      1.23361737	    -10.19009854	     -3.11731403	      0.00000000	      0.00000000	    -51.62530400	      3.59473963	     11.94214369	     89.69022688	    -39.35935026	     41.47904334	     78.45601568	     35.73736855	      0.00000000	      0.00000000	     87.70770591	    -13.26518132	     39.46253379	     51.51086441	     40.25108050	      0.00000000	      0.00000000
      0.07500000	    -25.97700768	      1.40304051	     -4.20171019	      0.12717127	      1.14248556	     -0.23310116	      0.00000000	      0.50000000	      0.00000000	      0.25000000	     89.53800902	     -1.15333615	      2.38287858	     82.33451425	      1.43700836	     29.48081988	     -8.63018080	      0.00000000	      0.00000000	     66.52188754	    -11.79906546	     -7.11646229	     71.04142192	      1.23990672	     -9.99046912	     -2.81843888	      0.00000000	      0.00000000	    -51.55684584	      3.67430809	     12.05324531	     89.68370818	    -39.71735145	     41.31572830	     78.69573979	     35.55505273	      0.00000000	      0.00000000	     88.13842712	    -13.14802200	     40.74838417	     50.76615463	     40.46188097	      0.00000000	      0.00000000
